<svg clip-rule="evenodd" fill-rule="evenodd" height="512" image-rendering="optimizeQuality" shape-rendering="geometricPrecision" text-rendering="geometricPrecision" viewBox="0 0 4000 4000" width="512" xmlns="http://www.w3.org/2000/svg"><g id="Layer_x0020_1"><g fill-rule="nonzero"><path d="m1206 3333h-134v-2666h134z" fill="#d1d8de"/><path d="m2660 3333h-1490v-2666h1886v2271z" fill="#eff2f4"/><path d="m944 1731v-779l128 126v780z" fill="#1e4387"/><path d="m2660 2938h396l-396 395z" fill="#d1d8de"/><path d="m944 1731v-779h1571v779z" fill="#2654a9"/><path d="m1221 1446h54c31 0 54-8 68-25 14-16 21-43 21-80s-7-64-20-81-34-26-62-26h-63v212zm-66 60v-330h129c51 0 88 14 113 41s37 69 37 124c0 30-5 57-14 80s-23 41-40 55c-13 10-28 18-45 23s-40 7-70 7h-111zm353-165c0 36 8 64 24 85 16 20 39 30 68 30s52-10 68-30 24-48 24-85c0-36-8-64-24-84s-39-30-68-30-51 10-68 30c-16 20-24 48-24 85zm-69 0c0-53 15-95 44-127 29-31 68-47 117-47s88 16 118 47c29 31 44 74 44 127s-15 95-44 127c-29 31-68 47-118 47-49 0-88-16-117-47s-44-74-44-127zm627 51c-3 37-17 67-43 89s-61 33-103 33c-49 0-87-15-114-46-27-30-41-73-41-128 0-56 14-99 41-129 28-30 67-45 119-45 42 0 75 10 100 31 24 20 38 50 40 87h-67c-3-19-10-33-23-43-12-10-29-15-50-15-30 0-53 10-68 29-16 19-23 47-23 84 0 36 8 63 23 83 16 20 37 29 66 29 21 0 37-5 51-16 13-11 22-26 26-45h66zm-18 113 104-168-104-161h78l67 115 67-115h79l-104 161 104 169h-78l-67-114-67 114h-78z" fill="#fff"/></g><path d="m1788 2331v402l662 111v-624zm-67-56 795-133v782l-795-133v-515z" fill="#2654a9"/><path d="m2002 2619 7-19 17-43 62-142h62v146c0 19-2 39-5 58 1-3 9-25 25-64l56-141h71l-117 270h-85v-114c0-19 1-39 2-60-4 16-11 38-22 64l-47 110h-80l-9-270h68l-2 135c-1 33-2 56-5 69z" fill="#2654a9"/></g></svg>